<?xml version="1.0" encoding="utf-8"?>
<!-- Generator: Adobe Illustrator 21.1.0, SVG Export Plug-In . SVG Version: 6.00 Build 0)  -->
<svg version="1.1" id="logo" xmlns="http://www.w3.org/2000/svg" xmlns:xlink="http://www.w3.org/1999/xlink" x="0px" y="0px"
	 viewBox="0 0 140 140" style="enable-background:new 0 0 140 140;" xml:space="preserve">
<style type="text/css">
	.st0{fill:#FFFFFF;}
</style>
<title>logo</title>
<path class="st0" d="M70.2,11.4C33,11.4,2.8,37.8,2.8,70.4s30.2,59.1,67.4,59.1s67.5-26.5,67.5-59.1S107.5,11.4,70.2,11.4z
	 M70.2,127.6c-31.9,0-57.8-22.5-57.8-50.3S38.3,27,70.2,27S128,49.5,128,77.3S102.1,127.6,70.2,127.6L70.2,127.6z"/>
<path class="st0" d="M66.7,62.5c0,0-27.3,22.4-3.9,58.1c0,0,7.2,1.9,9.9-4.9s-11.6-24.9-7.8-31.8c0,0-5.9,6.1-4.2,9.7
	C60.7,93.6,56.1,87,66.7,62.5z"/>
<ellipse transform="matrix(1.745241e-02 -0.9998 0.9998 1.745241e-02 -9.1976 146.286)" class="st0" cx="69.8" cy="77.8" rx="4.4" ry="4.4"/>
<path class="st0" d="M72.3,57.1c0,0,31.8,28.1,2.3,69.9c0,0-8.8,2-11.7-6.3s14.9-29.5,10.7-37.8c0,0,6.9,7.6,4.6,11.9
	C78.2,94.8,84,87,72.3,57.1z"/>
</svg>
